# xmcd CD database file
#
# Track frame offsets:
#	150
#	10350
#	23200
#	35712
#	51060
#	61470
#	78085
#	89912
#	103712
#	124070
#
# Disc length: 1799 seconds
#
# Revision: 1
# Processed by: cddbd v1.5.2PL0 Copyright (c) Steve Scherf et al.
# Submitted via: CDex 1.51
#
DISCID=8207050a
DTITLE=Coda - Change My Heart, O God
DYEAR=1997
DGENRE=Jazz
TTITLE0=Change My Heart, O God
TTITLE1=How Great Thou Art
TTITLE2=Beautiful Savior
TTITLE3=On Eagles Wings
TTITLE4=Jesus Loves Me
TTITLE5=Amazing Grace
TTITLE6=What a Friend We Have in Jesus
TTITLE7=Quiet Place
TTITLE8=Let There Be Peace on Earth
TTITLE9=The Lord's Prayer
EXTD=YEAR: 1997
EXTT0=
EXTT1=
EXTT2=
EXTT3=
EXTT4=
EXTT5=
EXTT6=
EXTT7=
EXTT8=
EXTT9=
PLAYORDER=
